<svg width="99" height="93" viewBox="0 0 99 93" fill="none" xmlns="http://www.w3.org/2000/svg">
<path d="M45.3315 47.0603C44.1157 47.2703 42.3441 48.3558 39.7736 50.0365C38.3841 50.9119 36.2999 52.2775 35.8831 52.3825C34.5978 52.0674 24.3852 49.3713 24.3852 49.3713C24.0725 49.2662 23.7599 49.3362 23.482 49.5113C23.2041 49.6864 23.0304 49.9665 22.9957 50.2816L20.2515 68.0343C20.182 68.5945 20.5294 69.1548 21.0852 69.2948L30.082 71.7459C29.3873 72.7613 29.2831 74.1619 29.9083 75.3524C30.7073 76.8931 32.4094 78.0136 34.1462 78.1536C34.2504 78.3287 34.3546 78.5388 34.4936 78.7139C35.501 80.0795 37.2031 80.9548 38.9052 80.9898C39.0441 81.235 39.2178 81.5151 39.4262 81.7602C40.4336 82.9857 41.9967 83.756 43.5252 83.8611C43.6641 84.1762 43.8725 84.4563 44.081 84.7365C45.0188 85.892 46.4778 86.5923 47.9367 86.5923C49.222 86.5923 50.3336 86.032 51.0283 85.0166C51.4104 84.4563 53.3557 81.0249 53.3557 81.0249C54.0157 81.305 54.3978 81.4801 54.4325 81.4801C56.2736 82.2154 58.1841 81.235 58.9483 79.2391C59.0873 78.8889 59.1567 78.5388 59.2262 78.1886C61.1715 78.924 63.4294 77.8735 64.1936 75.9477C64.4367 75.3174 64.5062 74.6521 64.4367 74.0218C64.7841 73.9518 77.9146 70.2402 77.9146 70.2402C78.4704 70.1002 78.8178 69.5399 78.7136 68.9797L75.5178 48.846C75.4831 48.5309 75.2746 48.2508 75.0315 48.0757C74.7883 47.9006 74.4409 47.8306 74.1283 47.9356L62.9778 50.8069C62.4567 50.6668 60.9631 49.9315 56.9683 47.5155C53.5988 45.4846 52.661 44.9594 51.6883 44.9594C50.5073 44.9594 48.041 46.2549 46.3388 47.2703C46.061 47.0953 45.7136 47.0252 45.3315 47.0603ZM72.6694 51.7173L75.2052 67.6141L70.3767 68.9797C70.8631 68.4545 71.2452 67.8592 71.5231 67.1589C72.1831 65.2681 71.6273 63.3423 70.0988 62.1167C70.0641 62.0817 61.5883 57.2847 54.9536 53.1529C54.7799 53.0478 54.5715 52.9778 54.3631 52.9778L52.3136 53.0478C52.1746 53.0478 52.001 53.0828 51.862 53.1529C49.4999 54.2734 49.2567 55.1838 49.1873 55.4989C48.9788 56.3042 47.9715 60.0158 47.4504 61.9417C46.2694 62.1517 43.942 61.0663 43.5599 60.2609C43.6988 59.6307 43.8725 58.7553 44.0462 57.8099C44.4283 55.779 44.9494 53.2229 45.1578 52.3825C45.6441 51.4371 50.681 48.4258 51.5841 48.2858C52.0357 48.3908 53.842 49.4763 55.3009 50.3517C59.0873 52.6277 61.6925 54.1333 63.2904 54.1333C63.9504 54.0983 70.2378 52.3125 72.6694 51.7173ZM47.9715 83.3008C47.5199 83.3008 46.9641 83.0207 46.6515 82.6356C46.4083 82.3204 46.3389 81.9703 46.4083 81.5851C46.5125 81.1649 46.3388 80.7097 45.9915 80.4296C45.7831 80.2895 45.5399 80.2195 45.3315 80.2195C45.1578 80.2195 44.9494 80.2545 44.7757 80.3596C43.942 80.8148 42.622 80.3946 41.9273 79.5892C41.7188 79.3441 41.5104 78.994 41.5799 78.5738C41.6494 78.1186 41.4757 77.6634 41.0588 77.4183C40.6767 77.1732 40.1557 77.2082 39.8083 77.4883C39.5652 77.6634 39.2525 77.6984 39.0441 77.6984C38.3494 77.6984 37.5157 77.3133 37.1336 76.753C36.821 76.2978 36.9252 75.9827 36.9252 75.8776C37.0641 75.4225 36.8904 74.8972 36.5083 74.6171C36.0915 74.337 35.5704 74.337 35.1883 74.6521C34.5631 75.1073 33.6599 74.8272 33.0694 74.1969C32.7915 73.9168 32.7567 73.7067 32.7567 73.6717L34.6325 70.8705C34.9104 70.4153 35.6746 70.8355 36.1262 71.3957C36.3694 71.6758 36.4389 71.8859 36.4041 71.991C36.3346 72.5162 36.6473 73.0414 37.1683 73.2165C37.6546 73.3916 38.2452 73.1815 38.4883 72.7263C39.2178 71.5008 39.8431 70.8355 40.2599 70.7304C40.9894 70.6254 41.6146 70.8705 42.101 71.3957C42.4483 71.7809 42.5873 72.1661 42.5873 72.3761C42.5525 72.9014 42.8999 73.3566 43.3862 73.4966C43.8725 73.6367 44.3936 73.4266 44.6715 73.0064C45.5746 71.5008 47.4157 72.2711 48.0757 73.2515C48.2494 73.5316 48.3536 73.8118 48.2841 73.9868C48.0757 74.477 48.2494 75.0373 48.6662 75.3524C49.1178 75.6676 49.6736 75.6325 50.0904 75.2474C50.542 74.8622 51.6188 75.2474 52.001 75.9127C52.2094 76.2978 52.1746 76.683 51.9315 77.1382C51.5494 77.7334 48.8052 82.6356 48.3536 83.2658C48.2841 83.3008 48.0757 83.3008 47.9715 83.3008Z" fill="#AAD4C8"/>
<path d="M50.9589 16.8772C50.1252 16.1419 48.8747 16.1419 48.0062 16.8772L14.1031 46.3599C13.6168 46.7801 13.3389 47.4104 13.3389 48.0757V90.724C13.3389 91.9845 14.3462 93 15.5968 93H83.4031C84.6536 93 85.661 91.9845 85.661 90.724V48.0757C85.661 47.4104 85.3831 46.7801 84.8968 46.3599L50.9589 16.8772ZM81.1452 88.448H17.8547V49.1261L49.4999 21.6043L81.1452 49.1261V88.448Z" fill="#AAD4C8"/>
<path d="M97.4369 40.0919L52.4179 1.08509C50.7158 -0.385541 48.2495 -0.385541 46.5474 1.08509L1.56319 40.0919C-0.312597 41.7376 -0.521018 44.6088 1.07688 46.4996C2.70951 48.3904 5.55793 48.6005 7.43372 46.9898L49.5 10.5041L91.5664 46.9548C92.4 47.6901 93.4422 48.0403 94.4843 48.0403C95.7348 48.0403 97.02 47.5151 97.8885 46.4646C99.5211 44.6088 99.3127 41.7376 97.4369 40.0919Z" fill="#AAD4C8"/>
</svg>
