<svg width="67" height="86" viewBox="0 0 67 86" fill="none" xmlns="http://www.w3.org/2000/svg">
<path d="M24.1431 6.20651C22.7599 6.57713 21.9299 8.00645 22.2987 9.38277L23.1569 12.5858L28.1867 11.2381C28.1867 11.2381 27.5028 8.68566 27.3285 8.03504C26.9597 6.65872 25.5263 5.83588 24.1431 6.20651ZM25.1958 10.1353C24.4162 10.3442 23.6198 9.88704 23.412 9.11129C23.2041 8.33555 23.6652 7.54148 24.4448 7.33259C25.2244 7.12369 26.0208 7.58082 26.2286 8.35656C26.4365 9.13231 25.9754 9.92637 25.1958 10.1353Z" fill="#E8505B"/>
<g opacity="0.45">
<g opacity="0.45">
<path opacity="0.45" d="M26.2285 8.35657C26.0207 7.58082 25.2243 7.12369 24.4447 7.33259C24.3693 7.3528 24.2938 7.37302 24.2502 7.41152C24.4313 7.28254 24.4179 7.23249 24.77 7.13815C25.5496 6.92925 26.346 7.38639 26.5538 8.16213C26.7416 8.8628 26.49 9.3325 25.977 9.63089C26.205 9.27477 26.3425 8.78197 26.2285 8.35657ZM23.8242 12.0584L22.9659 8.8553C22.7312 7.97946 22.9073 7.12766 23.4656 6.49529C22.515 7.07186 21.9902 8.23167 22.2986 9.38277L23.1569 12.5858L28.1867 11.2381C28.1867 11.2381 28.1531 11.113 28.0995 10.9128L23.8242 12.0584Z" fill="#B03D44"/>
</g>
</g>
<path d="M64.2772 73.0982L21.8509 84.4663C20.4928 84.8302 19.1164 84.0189 18.761 82.6926L2.22608 20.9835C1.86401 19.6322 2.68224 18.2597 4.01513 17.9025L46.4414 6.53441C47.7995 6.17052 49.1759 6.98181 49.5313 8.30808L66.0662 70.0172C66.4467 71.3368 65.6352 72.7343 64.2772 73.0982Z" fill="#3E89CC"/>
<path d="M46.8622 9.21096L5.01428 20.4241L21.4553 81.7829L63.3032 70.5698L46.8622 9.21096Z" fill="#C3ECFE"/>
<path d="M45.7555 11.5191L7.12671 21.8696L22.562 79.4748L61.1908 69.1243L45.7555 11.5191Z" fill="white"/>
<path d="M40.7511 9.23936L41.4216 11.7418L10.9913 19.8955L10.3208 17.3931C10.2739 17.218 10.2521 17.036 10.2555 16.8474C10.2874 16.0611 10.8323 15.3786 11.6119 15.1697L38.5213 7.95938C39.4954 7.67155 40.4896 8.26342 40.7511 9.23936Z" fill="#E8505B"/>
<path opacity="0.45" d="M41.2539 11.1161L41.4216 11.7417L10.9913 19.8954L10.5085 18.0937C10.3811 17.6183 10.299 17.2111 10.2554 16.8473C10.2873 16.061 10.8323 15.3786 11.6119 15.1697L11.8382 15.109C11.5062 15.6807 11.3352 16.4507 11.5229 17.1514L12.0057 18.9531L41.2539 11.1161Z" fill="#B03D44"/>
<g opacity="0.15">
<path opacity="0.15" d="M19.4763 25.105L25.7384 23.4271" stroke="#0964AF" stroke-width="3.1215" stroke-miterlimit="10" stroke-linecap="round" stroke-linejoin="round"/>
<path opacity="0.15" d="M40.3583 21.6553L45.1366 20.3749" stroke="#0964AF" stroke-width="3.1215" stroke-miterlimit="10" stroke-linecap="round" stroke-linejoin="round"/>
<path opacity="0.15" d="M20.0127 27.1069L38.296 22.2079" stroke="#0964AF" stroke-width="3.1215" stroke-miterlimit="10" stroke-linecap="round" stroke-linejoin="round"/>
<path opacity="0.15" d="M20.5492 29.1089L45.673 22.377" stroke="#0964AF" stroke-width="3.1215" stroke-miterlimit="10" stroke-linecap="round" stroke-linejoin="round"/>
<path opacity="0.15" d="M38.2053 26.4968L46.2027 24.3539" stroke="#0964AF" stroke-width="3.1215" stroke-miterlimit="10" stroke-linecap="round" stroke-linejoin="round"/>
<path opacity="0.15" d="M21.0789 31.0857L36.2185 27.029" stroke="#0964AF" stroke-width="3.1215" stroke-miterlimit="10" stroke-linecap="round" stroke-linejoin="round"/>
<path opacity="0.15" d="M27.8007 22.8745L44.6002 18.3731" stroke="#0964AF" stroke-width="3.1215" stroke-miterlimit="10" stroke-linecap="round" stroke-linejoin="round"/>
</g>
<g opacity="0.15">
<path opacity="0.15" d="M23.3116 39.4187L29.5737 37.7408" stroke="#0964AF" stroke-width="3.1215" stroke-miterlimit="10" stroke-linecap="round" stroke-linejoin="round"/>
<path opacity="0.15" d="M44.1936 35.969L48.9719 34.6887" stroke="#0964AF" stroke-width="3.1215" stroke-miterlimit="10" stroke-linecap="round" stroke-linejoin="round"/>
<path opacity="0.15" d="M23.848 41.4207L42.1313 36.5217" stroke="#0964AF" stroke-width="3.1215" stroke-miterlimit="10" stroke-linecap="round" stroke-linejoin="round"/>
<path opacity="0.15" d="M24.3778 43.3975L49.5016 36.6655" stroke="#0964AF" stroke-width="3.1215" stroke-miterlimit="10" stroke-linecap="round" stroke-linejoin="round"/>
<path opacity="0.15" d="M42.0406 40.8103L50.038 38.6674" stroke="#0964AF" stroke-width="3.1215" stroke-miterlimit="10" stroke-linecap="round" stroke-linejoin="round"/>
<path opacity="0.15" d="M24.9142 45.3994L40.0539 41.3427" stroke="#0964AF" stroke-width="3.1215" stroke-miterlimit="10" stroke-linecap="round" stroke-linejoin="round"/>
<path opacity="0.15" d="M31.636 37.1882L48.4355 32.6868" stroke="#0964AF" stroke-width="3.1215" stroke-miterlimit="10" stroke-linecap="round" stroke-linejoin="round"/>
</g>
<g opacity="0.15">
<path opacity="0.15" d="M27.0129 53.2319L33.275 51.554" stroke="#0964AF" stroke-width="3.1215" stroke-miterlimit="10" stroke-linecap="round" stroke-linejoin="round"/>
<path opacity="0.15" d="M47.8882 49.7573L52.6665 48.477" stroke="#0964AF" stroke-width="3.1215" stroke-miterlimit="10" stroke-linecap="round" stroke-linejoin="round"/>
<path opacity="0.15" d="M27.5426 55.2087L45.8259 50.3097" stroke="#0964AF" stroke-width="3.1215" stroke-miterlimit="10" stroke-linecap="round" stroke-linejoin="round"/>
<path opacity="0.15" d="M28.0791 57.2107L53.2029 50.4788" stroke="#0964AF" stroke-width="3.1215" stroke-miterlimit="10" stroke-linecap="round" stroke-linejoin="round"/>
<path opacity="0.15" d="M45.7352 54.5986L53.7326 52.4557" stroke="#0964AF" stroke-width="3.1215" stroke-miterlimit="10" stroke-linecap="round" stroke-linejoin="round"/>
<path opacity="0.15" d="M28.6088 59.1875L43.7484 55.1308" stroke="#0964AF" stroke-width="3.1215" stroke-miterlimit="10" stroke-linecap="round" stroke-linejoin="round"/>
<path opacity="0.15" d="M35.3373 51.0015L52.1368 46.5" stroke="#0964AF" stroke-width="3.1215" stroke-miterlimit="10" stroke-linecap="round" stroke-linejoin="round"/>
</g>
<g opacity="0.15">
<path opacity="0.15" d="M30.7812 67.2954L37.0433 65.6175" stroke="#0964AF" stroke-width="3.1215" stroke-miterlimit="10" stroke-linecap="round" stroke-linejoin="round"/>
<path opacity="0.15" d="M51.6565 63.8208L56.4348 62.5405" stroke="#0964AF" stroke-width="3.1215" stroke-miterlimit="10" stroke-linecap="round" stroke-linejoin="round"/>
<path opacity="0.15" d="M31.3109 69.2722L49.5942 64.3732" stroke="#0964AF" stroke-width="3.1215" stroke-miterlimit="10" stroke-linecap="round" stroke-linejoin="round"/>
<path opacity="0.15" d="M31.8474 71.2742L56.9712 64.5423" stroke="#0964AF" stroke-width="3.1215" stroke-miterlimit="10" stroke-linecap="round" stroke-linejoin="round"/>
<path opacity="0.15" d="M49.5035 68.6621L57.5009 66.5192" stroke="#0964AF" stroke-width="3.1215" stroke-miterlimit="10" stroke-linecap="round" stroke-linejoin="round"/>
<path opacity="0.15" d="M32.3771 73.251L47.5168 69.1943" stroke="#0964AF" stroke-width="3.1215" stroke-miterlimit="10" stroke-linecap="round" stroke-linejoin="round"/>
<path opacity="0.15" d="M39.1056 65.0649L55.9051 60.5635" stroke="#0964AF" stroke-width="3.1215" stroke-miterlimit="10" stroke-linecap="round" stroke-linejoin="round"/>
</g>
<path d="M18.2102 30.9425L13.5073 32.2026C13.2056 32.2835 12.9189 32.1189 12.8384 31.8186L11.5912 27.1642C11.5108 26.8639 11.6768 26.578 11.9786 26.4972L16.6814 25.237C16.9832 25.1562 17.2699 25.3207 17.3504 25.621L18.6042 30.3005C18.678 30.5758 18.4868 30.8684 18.2102 30.9425Z" stroke="#2396B5" stroke-width="1.1566" stroke-miterlimit="10"/>
<path d="M22.0321 45.2061L17.3292 46.4662C17.0275 46.5471 16.7408 46.3825 16.6603 46.0822L15.4064 41.4027C15.326 41.1024 15.492 40.8165 15.7938 40.7357L20.4966 39.4756C20.7984 39.3947 21.0851 39.5593 21.1655 39.8596L22.4194 44.539C22.4999 44.8393 22.3087 45.1319 22.0321 45.2061Z" stroke="#2396B5" stroke-width="1.1566" stroke-miterlimit="10"/>
<path d="M25.8541 59.4697L21.1513 60.7299C20.8495 60.8107 20.5628 60.6461 20.4823 60.3459L19.2285 55.6664C19.148 55.3661 19.314 55.0802 19.6158 54.9994L24.3186 53.7392C24.6204 53.6584 24.9071 53.8229 24.9876 54.1232L26.2414 58.8027C26.3152 59.078 26.1308 59.3956 25.8541 59.4697Z" stroke="#2396B5" stroke-width="1.1566" stroke-miterlimit="10"/>
<path d="M29.676 73.7336L24.9732 74.9938C24.6714 75.0746 24.3847 74.9101 24.3042 74.6098L23.0504 69.9303C22.9699 69.63 23.1359 69.3441 23.4377 69.2633L28.1405 68.0031C28.4423 67.9223 28.729 68.0869 28.8095 68.3871L30.0633 73.0666C30.1371 73.3419 29.9527 73.6595 29.676 73.7336Z" stroke="#2396B5" stroke-width="1.1566" stroke-miterlimit="10"/>
<path d="M12.6508 28.3017L15.511 30.3247L17.929 22.6498" stroke="#FFA829" stroke-width="3.4699" stroke-miterlimit="10" stroke-linecap="round" stroke-linejoin="round"/>
<path d="M16.4392 42.4404L19.2993 44.4633L21.7173 36.7884" stroke="#FFA829" stroke-width="3.4699" stroke-miterlimit="10" stroke-linecap="round" stroke-linejoin="round"/>
</svg>
